#!OML:ASF I:\Actors\actors\Patient Classification 2\Patient 1\Session 1\actor1.ASF
:FULLY-SPECIFIED
:DEGREES

255
root -0.336471 18.0466 5.78452 1.40496 -30.6132 -1.80342
lowerback 2.74544 -8.67224 -1.24112
upperback -1.27055 -11.5841 1.64826
thorax -2.24295 -5.75534 2.84859
lowerneck -9.9401 4.71895 15.8819
upperneck 28.4132 1.26851 4.60713
head 11.213 2.58354 -0.838554
rclavicle 4.67796e-014 8.15017e-015
rhumerus 39.1598 44.2424 2.65748
rradius 137.545
rwrist -91.7658
rhand -1.67438 -56.1288
rfingers 7.12502
rthumb 23.9857 -84.6504
lclavicle 4.67796e-014 8.15017e-015
lhumerus 34.6853 34.5108 91.2678
lradius 52.7136
lwrist 72.5149
lhand -33.1437 3.10091
lfingers 7.12502
lthumb -6.35293 32.9856
rfemur 9.88398 17.4122 13.4694
rtibia -18.9818
rfoot 2.87105 -7.26028
rtoes -1.53792
lfemur 15.192 17.1779 -13.56
ltibia 3.65764e-014
lfoot -18.7286 15.4314
ltoes 5.78293
256
root -0.339469 18.0474 5.78297 1.42548 -30.6454 -1.73457
lowerback 2.72574 -8.69713 -1.27479
upperback -1.22925 -11.6188 1.61632
thorax -2.18756 -5.77363 2.82721
lowerneck -10.0171 4.6955 16.085
upperneck 28.4974 1.19105 4.50078
head 11.264 2.56228 -0.917225
rclavicle -3.96016e-015 -6.55989e-015
rhumerus 39.0665 43.9819 2.87868
rradius 137.868
rwrist -91.8976
rhand -1.57727 -56.2912
rfingers 7.12502
rthumb 24.0788 -84.8004
lclavicle -3.96016e-015 -6.55989e-015
lhumerus 34.8782 34.6218 91.3978
lradius 52.6748
lwrist 72.6355
lhand -33.2664 2.88814
lfingers 7.12502
lthumb -6.47137 32.7693
rfemur 9.85536 17.4396 13.3935
rtibia -19.059
rfoot 2.90774 -7.25864
rtoes -1.81606
lfemur 15.1336 17.2253 -13.6272
ltibia -4.77083e-015
lfoot -18.7243 15.4143
ltoes 5.62675
257
root -0.342336 18.0472 5.78051 1.43489 -30.6816 -1.66755
lowerback 2.71973 -8.70917 -1.32041
upperback -1.2064 -11.6368 1.60224
thorax -2.15366 -5.78278 2.83342
lowerneck -10.1612 4.66842 16.2621
upperneck 28.6542 1.1014 4.36594
head 11.3544 2.53554 -1.00227
rclavicle 1.57459e-014 -4.17448e-015
rhumerus 39.0019 43.6666 3.12612
rradius 138.182
rwrist -92.0183
rhand -1.76337 -56.2128
rfingers 7.12502
rthumb 23.9003 -84.7456
lclavicle 1.57459e-014 -4.17448e-015
lhumerus 35.085 34.7175 91.5552
lradius 52.5859
lwrist 72.6951
lhand -33.3213 2.74452
lfingers 7.12502
lthumb -6.5244 32.624
rfemur 9.8279 17.4888 13.3244
rtibia -19.1214
rfoot 2.92011 -7.26248
rtoes -1.88628
lfemur 15.0926 17.2743 -13.685
ltibia -2.8625e-014
lfoot -18.7191 15.3934
ltoes 5.52037
258
root -0.346039 18.0454 5.77758 1.42792 -30.7321 -1.60843
lowerback 2.77568 -8.69628 -1.36188
upperback -1.20252 -11.6218 1.5843
thorax -2.17704 -5.77427 2.84556
lowerneck -10.1487 4.64166 16.2083
upperneck 28.7032 1.05072 4.42994
head 11.3671 2.51599 -0.976801
rclavicle 4.04185e-014 -7.55382e-015
rhumerus 38.8802 43.3876 3.37845
rradius 138.498
rwrist -92.135
rhand -2.17115 -56.0408
rfingers 7.12502
rthumb 23.5092 -84.6242
lclavicle 4.04185e-014 -7.55382e-015
lhumerus 35.2136 34.751 91.73
lradius 52.5805
lwrist 72.7758
lhand -33.3926 2.72145
lfingers 7.12502
lthumb -6.59326 32.5988
rfemur 9.81791 17.5725 13.2711
rtibia -19.1691
rfoot 2.88608 -7.31029
rtoes -1.38376
lfemur 15.0847 17.3336 -13.7233
ltibia 2.8625e-014
lfoot -18.7087 15.3712
ltoes 5.5067
259
root -0.350624 18.0434 5.77529 1.42225 -30.7934 -1.56499
lowerback 2.86744 -8.67524 -1.42128
upperback -1.21601 -11.5968 1.58628
thorax -2.23115 -5.75968 2.89424
lowerneck -10.2021 4.58365 16.0732
upperneck 28.8058 0.934443 4.55702
head 11.4082 2.46953 -0.922349
rclavicle -6.25395e-015 -7.7526e-015
rhumerus 38.6908 43.1337 3.59477
rradius 138.785
rwrist -92.1324
rhand -2.27296 -56.2013
rfingers 7.12502
rthumb 23.4116 -84.7972
lclavicle -6.25395e-015 -7.7526e-015
lhumerus 35.2567 34.7541 91.8768
lradius 52.6189
lwrist 72.9104
lhand -33.4623 2.59613
lfingers 7.12502
lthumb -6.66051 32.4714
rfemur 9.81628 17.6533 13.2364
rtibia -19.2128
rfoot 2.8641 -7.35193
rtoes -0.907489
lfemur 15.0931 17.4024 -13.743
ltibia -3.18055e-014
lfoot -18.7385 15.3364
ltoes 5.68919
260
root -0.355084 18.0435 5.77357 1.44292 -30.8356 -1.52285
lowerback 2.89369 -8.65237 -1.47316
upperback -1.22973 -11.5688 1.57771
thorax -2.25308 -5.7444 2.91735
lowerneck -10.1702 4.51182 15.9657
upperneck 28.8223 0.81564 4.69624
head 11.3997 2.41942 -0.870479
rclavicle 2.15495e-014 -1.88845e-015
rhumerus 38.4294 42.8813 3.6826
rradius 139.043
rwrist -92.0121
rhand -2.25628 -56.4526
rfingers 7.12502
rthumb 23.4276 -85.0464
lclavicle 2.15495e-014 -1.88845e-015
lhumerus 35.2734 34.7082 92.0047
lradius 52.6732
lwrist 72.939
lhand -33.4181 2.5507
lfingers 7.12502
lthumb -6.61781 32.4273
rfemur 9.78099 17.6504 13.1952
rtibia -19.2496
rfoot 2.90759 -7.31787
rtoes -0.886409
lfemur 15.0617 17.4563 -13.7745
ltibia -1.59028e-015
lfoot -18.7787 15.3245
ltoes 5.78635
261
root -0.35959 18.0444 5.7731 1.45347 -30.8628 -1.45425
lowerback 2.83489 -8.64055 -1.52706
upperback -1.20783 -11.5551 1.54607
thorax -2.19469 -5.73823 2.90066
lowerneck -10.0713 4.47947 15.9905
upperneck 28.744 0.790118 4.70255
head 11.3485 2.404 -0.878236
rclavicle -2.67156e-013 5.86415e-015
rhumerus 38.2197 42.611 3.75605
rradius 139.283
rwrist -91.7549
rhand -2.13511 -56.3077
rfingers 7.12502
rthumb 23.5438 -84.8867
lclavicle -2.67156e-013 5.86415e-015
lhumerus 35.2244 34.6229 92.0163
lradius 52.8101
lwrist 73.0225
lhand -33.3967 2.57664
lfingers 7.12502
lthumb -6.59714 32.4539
rfemur 9.73911 17.5335 13.1272
rtibia -19.2788
rfoot 3.0159 -7.1864
rtoes -0.97375
lfemur 15.0186 17.497 -13.8366
ltibia -5.24792e-014
lfoot -18.7792 15.3289
ltoes 5.72022
